<svg xmlns="http://www.w3.org/2000/svg" xmlns:xlink="http://www.w3.org/1999/xlink" viewBox="0 0 425.2 425.2"><defs><style>.cls-1{fill:url(#linear-gradient);}.cls-2{fill:url(#linear-gradient-2);}</style><linearGradient id="linear-gradient" x1="10.38" y1="414.82" x2="414.82" y2="10.38" gradientUnits="userSpaceOnUse"><stop offset="0" stop-color="#fff"/><stop offset="0" stop-color="#f8f8f8"/><stop offset="0.75"/></linearGradient><linearGradient id="linear-gradient-2" x1="414.82" y1="10.38" x2="10.38" y2="414.82" gradientUnits="userSpaceOnUse"><stop offset="0" stop-color="#fff"/><stop offset="0.75"/></linearGradient></defs><title>Asset 1</title><g id="Layer_2" data-name="Layer 2"><g id="Layer_1-2" data-name="Layer 1"><path class="cls-1" d="M0,35.43V389.76A35.44,35.44,0,0,0,35.43,425.2H389.76a35.44,35.44,0,0,0,35.44-35.44V35.43A35.44,35.44,0,0,0,389.76,0H35.43A35.43,35.43,0,0,0,0,35.43ZM106.3,70.87h0a35.43,35.43,0,0,1,35.43,35.43v25.62A35.41,35.41,0,0,1,131.35,157L70.87,217.46V106.3A35.43,35.43,0,0,1,106.3,70.87Zm248,283.46H268.84a35.41,35.41,0,0,1-25-10.38l-34.74-34.74a35.43,35.43,0,0,1,0-50.11h0a35.43,35.43,0,0,1,50.11,0l95.17,95.17Zm-.5-280.18L75,353a1.93,1.93,0,0,1-2.72,0l-1.36-1.36v-80.1a35.46,35.46,0,0,1,10.37-25.06L246.45,81.24a35.46,35.46,0,0,1,25.06-10.37h82.82v1.92A1.92,1.92,0,0,1,353.77,74.15Z"/><path class="cls-2" d="M389.76,1A34.48,34.48,0,0,1,424.2,35.43V389.76a34.48,34.48,0,0,1-34.44,34.44H35.43A34.48,34.48,0,0,1,1,389.76V35.43A34.48,34.48,0,0,1,35.43,1H389.76M73.59,354.53a2.93,2.93,0,0,0,2.07-.85L354.47,74.86a2.88,2.88,0,0,0,.86-2.07V69.87H271.51a36.19,36.19,0,0,0-25.76,10.67L80.54,245.75a36.19,36.19,0,0,0-10.67,25.76V352l.29.3,1.36,1.36a2.91,2.91,0,0,0,2.07.85M69.87,219.87l1.7-1.7,60.49-60.49a36.19,36.19,0,0,0,10.67-25.76V106.3a36.43,36.43,0,0,0-72.86,0V219.87m199,135.46h85.85L355,355,355,355l.7-.71-.7-.7-95.18-95.18a36.43,36.43,0,0,0-51.52,51.53l34.74,34.74a36.19,36.19,0,0,0,25.76,10.67M389.76,0H35.43A35.43,35.43,0,0,0,0,35.43V389.76A35.44,35.44,0,0,0,35.43,425.2H389.76a35.44,35.44,0,0,0,35.44-35.44V35.43A35.44,35.44,0,0,0,389.76,0ZM73.59,353.53a1.87,1.87,0,0,1-1.36-.56l-1.36-1.36v-80.1a35.46,35.46,0,0,1,10.37-25.06L246.45,81.24a35.46,35.46,0,0,1,25.06-10.37h82.82v1.92a1.92,1.92,0,0,1-.56,1.36L75,353a1.91,1.91,0,0,1-1.36.56ZM70.87,217.46V106.3A35.43,35.43,0,0,1,106.3,70.87h0a35.43,35.43,0,0,1,35.43,35.43v25.62A35.41,35.41,0,0,1,131.35,157L70.87,217.46Zm198,136.87a35.41,35.41,0,0,1-25-10.38l-34.74-34.74a35.43,35.43,0,0,1,0-50.11h0a35.43,35.43,0,0,1,50.11,0l95.17,95.17-.06.06Z"/></g></g></svg>